<svg id="Capa_1" data-name="Capa 1" xmlns="http://www.w3.org/2000/svg" viewBox="0 0 731.05 262.41"><defs><style>.cls-1{fill:#fff;}.cls-2,.cls-3{fill:none;stroke-miterlimit:10;}.cls-2{stroke:#00c;}.cls-3{font-size:98.64px;stroke:#fff;font-family:DMSans-Medium, DM Sans;font-weight:500;}</style></defs><path class="cls-1" d="M131.89,106.91c-2.44-6-4.93-12-7.32-18.06l-7.22-18.09-7.2-18.1L103.07,34.5l3.31-.59.38,29.63.18,14.82L107,93.18l.25,59.28-3.77-2.33,18.2-9.2L140,131.87h0a2.62,2.62,0,0,1,3.51,1.19,2.7,2.7,0,0,1,.27,1.17l-.31,72.95a2.31,2.31,0,0,1-4.48.8v0a141.18,141.18,0,0,0-6.28-14.45,105,105,0,0,0-8-13.54,53.49,53.49,0,0,0-10.5-11.38,28.05,28.05,0,0,0-6.5-3.85,19.71,19.71,0,0,0-7.24-1.47,19.26,19.26,0,0,0-7.29,1.45,28.81,28.81,0,0,0-6.67,3.76,48.67,48.67,0,0,0-5.85,5.2,72.33,72.33,0,0,0-5.14,6A117.86,117.86,0,0,0,66.68,193c-2.66,4.63-5.14,9.38-7.47,14.2h0a.16.16,0,0,1-.2.07.14.14,0,0,1-.07-.2c4.4-9.76,9.28-19.38,15.63-28.06a72.17,72.17,0,0,1,5.09-6.24,51.89,51.89,0,0,1,5.9-5.48,30.75,30.75,0,0,1,6.94-4.11,20.93,20.93,0,0,1,7.88-1.68A21.45,21.45,0,0,1,108.3,163a30.19,30.19,0,0,1,7,4,55.45,55.45,0,0,1,11.08,11.66,108.75,108.75,0,0,1,8.41,13.71,134.07,134.07,0,0,1,6.58,14.69l-.46.08,0-72.95.42.25L104.8,152.71a.28.28,0,0,1-.38-.13.27.27,0,0,1,0-.12l.08-118.55a.2.2,0,0,1,.2-.21.21.21,0,0,1,.19.13l27.31,73a.15.15,0,1,1-.28.1Z"/><path class="cls-1" d="M169.33,181.16a50.89,50.89,0,0,1-8.43-5.62c-1.34-1-2.54-2.14-3.81-3.21s-2.41-2.27-3.61-3.42-2.3-2.38-3.41-3.61-2.21-2.47-3.21-3.81a51.22,51.22,0,0,1-5.62-8.42l0,0a.15.15,0,0,1,.06-.2.15.15,0,0,1,.17,0c4.77,4.59,9.43,9.3,14.15,13.94S165,176.17,169.54,181a.13.13,0,0,1,0,.2.14.14,0,0,1-.17,0Z"/><path class="cls-1" d="M128.88,140.4l-15.51-14.88a.6.6,0,0,1,0-.84.69.69,0,0,1,.42-.18h0l29.64-.47c9.88-.14,19.76-.36,29.64-.43l59.27-.58a2.07,2.07,0,0,1,1.43,3.59l0,0c-7.55,6.9-15,13.87-22.64,20.71l-22.73,20.59-45.46,41.18a2.63,2.63,0,0,1-4.34-2.46v0L143.07,185l4.62-21.65L157,120l9.26-43.29c3-14.44,6.29-28.84,9.45-43.25v0a2,2,0,0,1,4,.24l3.17,33.22c1,11.08,2.16,22.15,3.13,33.24l3,33.25q1.52,16.62,2.86,33.26a.15.15,0,0,1-.29,0L177.41,33.93l.43,0L141.43,207.23,141,207l91.23-82,.15.39-118.55-.06.11-.28,15.2,15.21a.17.17,0,0,1,0,.21A.16.16,0,0,1,128.88,140.4Z"/><path class="cls-1" d="M241.31,207.17a101,101,0,0,0-3.79-17.7,62,62,0,0,0-3.19-8.31,42.85,42.85,0,0,0-4.43-7.48,27.6,27.6,0,0,0-6-5.84,19.87,19.87,0,0,0-7.42-3.21c-5.32-1.21-11.1-.3-16.54,1.56a76.86,76.86,0,0,0-15.88,7.61A172.37,172.37,0,0,0,169.23,184c-4.79,3.65-9.5,7.46-14.14,11.38s-9.19,8-13.83,11.94h0a.15.15,0,0,1-.21,0,.14.14,0,0,1,0-.2,299.84,299.84,0,0,1,26.71-24.94,153,153,0,0,1,14.83-10.72A78.24,78.24,0,0,1,199,163.34a41.62,41.62,0,0,1,9-2,26.92,26.92,0,0,1,9.17.53,22.54,22.54,0,0,1,8.33,3.84,28.07,28.07,0,0,1,6.37,6.59,51.3,51.3,0,0,1,7.23,16.76,85,85,0,0,1,2.55,18.1.14.14,0,0,1-.14.15.14.14,0,0,1-.15-.13Z"/><path class="cls-2" d="M132,106.86,104.67,33.91V152.46l36.48-18.24v72.95s-36.48-102.26-82.08,0"/><path class="cls-2" d="M131.89,106.91c-2.44-6-4.93-12-7.32-18.06l-7.22-18.09-7.2-18.1L103.07,34.5l3.31-.59.38,29.63.18,14.82L107,93.18l.25,59.28-3.77-2.33,18.2-9.2L140,131.87h0a2.62,2.62,0,0,1,3.51,1.19,2.7,2.7,0,0,1,.27,1.17l-.31,72.95a2.31,2.31,0,0,1-4.48.8v0a141.18,141.18,0,0,0-6.28-14.45,105,105,0,0,0-8-13.54,53.49,53.49,0,0,0-10.5-11.38,28.05,28.05,0,0,0-6.5-3.85,19.71,19.71,0,0,0-7.24-1.47,19.26,19.26,0,0,0-7.29,1.45,28.81,28.81,0,0,0-6.67,3.76,48.67,48.67,0,0,0-5.85,5.2,72.33,72.33,0,0,0-5.14,6A117.86,117.86,0,0,0,66.68,193c-2.66,4.63-5.14,9.38-7.47,14.2h0a.16.16,0,0,1-.2.07.14.14,0,0,1-.07-.2c4.4-9.76,9.28-19.38,15.63-28.06a72.17,72.17,0,0,1,5.09-6.24,51.89,51.89,0,0,1,5.9-5.48,30.75,30.75,0,0,1,6.94-4.11,20.93,20.93,0,0,1,7.88-1.68A21.45,21.45,0,0,1,108.3,163a30.19,30.19,0,0,1,7,4,55.45,55.45,0,0,1,11.08,11.66,108.75,108.75,0,0,1,8.41,13.71,134.07,134.07,0,0,1,6.58,14.69l-.46.08,0-72.95.42.25L104.8,152.71a.28.28,0,0,1-.38-.13.27.27,0,0,1,0-.12l.08-118.55a.2.2,0,0,1,.2-.21.21.21,0,0,1,.19.13l27.31,73a.15.15,0,1,1-.28.1Z"/><line class="cls-2" x1="169.44" y1="181.05" x2="141.34" y2="152.96"/><path class="cls-2" d="M169.33,181.16a50.89,50.89,0,0,1-8.43-5.62c-1.34-1-2.54-2.14-3.81-3.21s-2.41-2.27-3.61-3.42-2.3-2.38-3.41-3.61-2.21-2.47-3.21-3.81a51.22,51.22,0,0,1-5.62-8.42l0,0a.15.15,0,0,1,.06-.2.15.15,0,0,1,.17,0c4.77,4.59,9.43,9.3,14.15,13.94S165,176.17,169.54,181a.13.13,0,0,1,0,.2.14.14,0,0,1-.17,0Z"/><polyline class="cls-2" points="128.99 140.3 113.79 125.1 232.34 125.1 141.15 207.17 177.63 33.91 191.6 166.68"/><path class="cls-2" d="M128.88,140.4l-15.51-14.88a.6.6,0,0,1,0-.84.69.69,0,0,1,.42-.18h0l29.64-.47c9.88-.14,19.76-.36,29.64-.43l59.27-.58a2.07,2.07,0,0,1,1.43,3.59l0,0c-7.55,6.9-15,13.87-22.64,20.71l-22.73,20.59-45.46,41.18a2.63,2.63,0,0,1-4.34-2.46v0L143.07,185l4.62-21.65L157,120l9.26-43.29c3-14.44,6.29-28.84,9.45-43.25v0a2,2,0,0,1,4,.24l3.17,33.22c1,11.08,2.16,22.15,3.13,33.24l3,33.25q1.52,16.62,2.86,33.26a.15.15,0,0,1-.29,0L177.41,33.93l.43,0L141.43,207.23,141,207l91.23-82,.15.39-118.55-.06.11-.28,15.2,15.21a.17.17,0,0,1,0,.21A.16.16,0,0,1,128.88,140.4Z"/><path class="cls-2" d="M241.46,207.17s-1.26-102.86-100.31,0"/><path class="cls-2" d="M241.31,207.17a101,101,0,0,0-3.79-17.7,62,62,0,0,0-3.19-8.31,42.85,42.85,0,0,0-4.43-7.48,27.6,27.6,0,0,0-6-5.84,19.87,19.87,0,0,0-7.42-3.21c-5.32-1.21-11.1-.3-16.54,1.56a76.86,76.86,0,0,0-15.88,7.61A172.37,172.37,0,0,0,169.23,184c-4.79,3.65-9.5,7.46-14.14,11.38s-9.19,8-13.83,11.94h0a.15.15,0,0,1-.21,0,.14.14,0,0,1,0-.2,299.84,299.84,0,0,1,26.71-24.94,153,153,0,0,1,14.83-10.72A78.24,78.24,0,0,1,199,163.34a41.62,41.62,0,0,1,9-2,26.92,26.92,0,0,1,9.17.53,22.54,22.54,0,0,1,8.33,3.84,28.07,28.07,0,0,1,6.37,6.59,51.3,51.3,0,0,1,7.23,16.76,85,85,0,0,1,2.55,18.1.14.14,0,0,1-.14.15.14.14,0,0,1-.15-.13Z"/><path class="cls-1" d="M131.89,107.37c-2.44-6-4.93-12-7.32-18.06l-7.22-18.1-7.2-18.1L103.07,35l3.31-.6L106.76,64l.18,14.82L107,93.64l.25,59.27-3.77-2.33,18.2-9.2,18.27-9h0a2.62,2.62,0,0,1,3.51,1.18,2.7,2.7,0,0,1,.27,1.17l-.31,73a2.31,2.31,0,0,1-4.48.8v0A141.34,141.34,0,0,0,132.69,194a106.4,106.4,0,0,0-8-13.54A53.73,53.73,0,0,0,114.14,169a28.41,28.41,0,0,0-6.5-3.85,19.91,19.91,0,0,0-7.24-1.47,19.28,19.28,0,0,0-7.29,1.46,28.77,28.77,0,0,0-6.67,3.75,50.46,50.46,0,0,0-5.85,5.2,72.33,72.33,0,0,0-5.14,6,118.89,118.89,0,0,0-8.77,13.34q-4,6.94-7.47,14.2h0a.14.14,0,0,1-.2.07.13.13,0,0,1-.07-.19c4.4-9.76,9.28-19.39,15.63-28.07a72.17,72.17,0,0,1,5.09-6.24,52.81,52.81,0,0,1,5.9-5.48,30.71,30.71,0,0,1,6.94-4.1,20.74,20.74,0,0,1,7.88-1.68,21.45,21.45,0,0,1,7.92,1.48,29.83,29.83,0,0,1,7,4,55.4,55.4,0,0,1,11.08,11.65,108.86,108.86,0,0,1,8.41,13.72,133.23,133.23,0,0,1,6.58,14.69l-.46.08,0-73,.42.26L104.8,153.17a.28.28,0,0,1-.38-.13.31.31,0,0,1,0-.13l.08-118.55a.2.2,0,0,1,.2-.2.2.2,0,0,1,.19.13l27.31,73a.16.16,0,0,1-.09.2A.17.17,0,0,1,131.89,107.37Z"/><path class="cls-1" d="M169.33,181.61A51.48,51.48,0,0,1,160.9,176c-1.34-1-2.54-2.14-3.81-3.21s-2.41-2.28-3.61-3.42-2.3-2.38-3.41-3.61-2.21-2.48-3.21-3.81a50.89,50.89,0,0,1-5.62-8.43l0,0a.15.15,0,0,1,.06-.2.15.15,0,0,1,.17,0c4.77,4.59,9.43,9.3,14.15,13.94s9.35,9.38,13.94,14.15a.14.14,0,0,1,0,.21.15.15,0,0,1-.17,0Z"/><path class="cls-1" d="M128.88,140.86,113.37,126a.59.59,0,0,1,.4-1h0l29.64-.48c9.88-.14,19.76-.36,29.64-.42l59.27-.59a2.07,2.07,0,0,1,1.43,3.6l0,0c-7.55,6.9-15,13.86-22.64,20.7l-22.73,20.59-45.46,41.19a2.63,2.63,0,0,1-4.34-2.46v0l4.49-21.68,4.62-21.64L157,120.48l9.26-43.29c3-14.43,6.29-28.83,9.45-43.24v0a2,2,0,0,1,4,.24l3.17,33.23c1,11.08,2.16,22.15,3.13,33.23l3,33.25q1.52,16.62,2.86,33.26a.16.16,0,0,1-.13.17.15.15,0,0,1-.16-.14L177.41,34.38l.43,0L141.43,207.69l-.47-.28,91.23-82,.15.39-118.55-.06.11-.28,15.2,15.21a.17.17,0,0,1,0,.21A.16.16,0,0,1,128.88,140.86Z"/><path class="cls-1" d="M241.31,207.63a100.88,100.88,0,0,0-3.79-17.71,61.36,61.36,0,0,0-3.19-8.3,42.85,42.85,0,0,0-4.43-7.48,27.37,27.37,0,0,0-6-5.84,19.89,19.89,0,0,0-7.42-3.22c-5.32-1.2-11.1-.3-16.54,1.56a77.42,77.42,0,0,0-15.88,7.62,172.37,172.37,0,0,0-14.84,10.16Q162,189.9,155.09,195.8c-4.66,3.89-9.19,7.95-13.83,11.93h0a.14.14,0,0,1-.21,0,.14.14,0,0,1,0-.2,299.84,299.84,0,0,1,26.71-24.94,151.25,151.25,0,0,1,14.83-10.71A78.24,78.24,0,0,1,199,163.8a41,41,0,0,1,9-2,26.92,26.92,0,0,1,9.17.52,22.7,22.7,0,0,1,8.33,3.84,28.11,28.11,0,0,1,6.37,6.6,51.21,51.21,0,0,1,7.23,16.76,85,85,0,0,1,2.55,18.1.14.14,0,0,1-.14.15.14.14,0,0,1-.15-.13Z"/><path class="cls-1" d="M132.89,108.18c-2.44-6-4.93-12-7.32-18.06L118.35,72l-7.2-18.1-7.08-18.15,3.31-.6.38,29.64.18,14.82L108,94.45l.25,59.27-3.77-2.33,18.2-9.19L141,133.14h0a2.62,2.62,0,0,1,3.51,1.18,2.7,2.7,0,0,1,.27,1.17l-.31,73a2.31,2.31,0,0,1-4.48.8v0a141.34,141.34,0,0,0-6.28-14.46,106.4,106.4,0,0,0-8-13.54,53.73,53.73,0,0,0-10.5-11.38,28.41,28.41,0,0,0-6.5-3.85,19.91,19.91,0,0,0-7.24-1.47A19.28,19.28,0,0,0,94.11,166a29.14,29.14,0,0,0-6.67,3.75,50.46,50.46,0,0,0-5.85,5.2,72.33,72.33,0,0,0-5.14,6,118.89,118.89,0,0,0-8.77,13.34q-4,6.94-7.47,14.2h0a.14.14,0,0,1-.2.07.13.13,0,0,1-.07-.19c4.4-9.76,9.28-19.39,15.63-28.07a72,72,0,0,1,5.09-6.23,52,52,0,0,1,5.9-5.49,30.71,30.71,0,0,1,6.94-4.1,20.74,20.74,0,0,1,7.88-1.68,21.45,21.45,0,0,1,7.92,1.48,29.83,29.83,0,0,1,7,4A55.4,55.4,0,0,1,127.38,180a108.86,108.86,0,0,1,8.41,13.72,133.23,133.23,0,0,1,6.58,14.69l-.46.08,0-73,.42.26L105.8,154a.28.28,0,0,1-.38-.13.31.31,0,0,1,0-.13l.08-118.55a.2.2,0,0,1,.2-.2.2.2,0,0,1,.19.13l27.31,73a.16.16,0,0,1-.09.2A.17.17,0,0,1,132.89,108.18Z"/><path class="cls-1" d="M170.33,182.42a50.84,50.84,0,0,1-8.43-5.61c-1.34-1-2.54-2.14-3.81-3.21s-2.41-2.28-3.61-3.42-2.3-2.38-3.41-3.61-2.21-2.48-3.21-3.81a50.89,50.89,0,0,1-5.62-8.43l0,0a.15.15,0,0,1,.06-.2.15.15,0,0,1,.17,0c4.77,4.59,9.43,9.3,14.15,13.94s9.35,9.38,13.94,14.15a.15.15,0,0,1,0,.21.15.15,0,0,1-.17,0Z"/><path class="cls-1" d="M129.88,141.67l-15.51-14.88a.59.59,0,0,1,.4-1h0l29.64-.48c9.88-.14,19.76-.36,29.64-.42l59.27-.58a2.06,2.06,0,0,1,2.1,2,2.1,2.1,0,0,1-.67,1.54l0,0c-7.55,6.9-15,13.86-22.64,20.7l-22.73,20.6-45.46,41.18a2.63,2.63,0,0,1-4.34-2.46v0l4.49-21.68,4.62-21.64L158,121.29,167.21,78c3-14.43,6.29-28.83,9.45-43.24v0a2,2,0,0,1,4,.24l3.17,33.23c1,11.08,2.16,22.15,3.13,33.23l3,33.25q1.52,16.62,2.86,33.26a.15.15,0,0,1-.13.17.15.15,0,0,1-.16-.14L178.41,35.19l.43,0L142.43,208.5l-.47-.28,91.23-82,.15.39-118.55-.06.11-.28,15.2,15.21a.17.17,0,0,1,0,.21A.16.16,0,0,1,129.88,141.67Z"/><path class="cls-1" d="M242.31,208.44a100.88,100.88,0,0,0-3.79-17.71,61.88,61.88,0,0,0-3.19-8.3A42.85,42.85,0,0,0,230.9,175a27.37,27.37,0,0,0-6-5.84,19.89,19.89,0,0,0-7.42-3.22c-5.32-1.2-11.1-.3-16.54,1.56a77.42,77.42,0,0,0-15.88,7.62,172.37,172.37,0,0,0-14.84,10.16q-7.18,5.47-14.14,11.38c-4.66,3.89-9.19,7.95-13.83,11.93h0a.14.14,0,0,1-.21,0,.15.15,0,0,1,0-.21,299.84,299.84,0,0,1,26.71-24.94,151.25,151.25,0,0,1,14.83-10.71A78.24,78.24,0,0,1,200,164.61a41,41,0,0,1,9-2,26.92,26.92,0,0,1,9.17.52,22.7,22.7,0,0,1,8.33,3.84,28.11,28.11,0,0,1,6.37,6.6,51.21,51.21,0,0,1,7.23,16.76,85,85,0,0,1,2.55,18.1.14.14,0,0,1-.14.15.14.14,0,0,1-.15-.13Z"/><text class="cls-3" transform="translate(284.11 179.81)">DESIGN</text></svg>